<svg width="187" height="66" viewBox="0 0 187 66" fill="none" xmlns="http://www.w3.org/2000/svg">
<path d="M6.096 20.728C4.976 20.728 4.096 20.456 3.456 19.912C2.848 19.336 2.544 18.552 2.544 17.56C2.544 16.536 2.848 15.752 3.456 15.208C4.096 14.664 4.976 14.392 6.096 14.392C8.464 14.392 9.648 15.448 9.648 17.56C9.648 19.672 8.464 20.728 6.096 20.728ZM6.096 49.336C5.136 49.336 4.4 49.048 3.888 48.472C3.376 47.896 3.12 47.096 3.12 46.072V28.456C3.12 26.28 4.112 25.192 6.096 25.192C8.112 25.192 9.12 26.28 9.12 28.456V46.072C9.12 47.096 8.864 47.896 8.352 48.472C7.84 49.048 7.088 49.336 6.096 49.336ZM18.3304 49.384C16.3464 49.384 15.3544 48.36 15.3544 46.312V28.168C15.3544 26.152 16.3304 25.144 18.2824 25.144C20.2344 25.144 21.2104 26.152 21.2104 28.168V29.176C22.0104 27.832 23.0824 26.808 24.4264 26.104C25.8024 25.4 27.3384 25.048 29.0344 25.048C34.5704 25.048 37.3384 28.264 37.3384 34.696V46.312C37.3384 48.36 36.3464 49.384 34.3624 49.384C32.3464 49.384 31.3384 48.36 31.3384 46.312V34.984C31.3384 33.16 30.9864 31.832 30.2824 31C29.6104 30.168 28.5544 29.752 27.1144 29.752C25.3544 29.752 23.9464 30.312 22.8904 31.432C21.8664 32.52 21.3544 33.976 21.3544 35.8V46.312C21.3544 48.36 20.3464 49.384 18.3304 49.384ZM83.7855 49.48C82.0895 49.48 80.5695 49.16 79.2255 48.52C77.9135 47.848 76.8735 46.952 76.1055 45.832C75.3695 44.712 75.0015 43.448 75.0015 42.04C75.0015 40.312 75.4495 38.952 76.3455 37.96C77.2415 36.936 78.6975 36.2 80.7135 35.752C82.7295 35.304 85.4335 35.08 88.8255 35.08H90.5055V34.072C90.5055 32.472 90.1535 31.32 89.4495 30.616C88.7455 29.912 87.5615 29.56 85.8975 29.56C84.9695 29.56 83.9615 29.672 82.8735 29.896C81.8175 30.12 80.6975 30.504 79.5135 31.048C78.7455 31.4 78.1055 31.448 77.5935 31.192C77.0815 30.904 76.7295 30.472 76.5375 29.896C76.3775 29.288 76.4095 28.68 76.6335 28.072C76.8895 27.464 77.3855 27.016 78.1215 26.728C79.5935 26.12 81.0015 25.688 82.3455 25.432C83.7215 25.176 84.9695 25.048 86.0895 25.048C89.5135 25.048 92.0575 25.848 93.7215 27.448C95.3855 29.016 96.2175 31.464 96.2175 34.792V46.312C96.2175 48.36 95.2895 49.384 93.4335 49.384C91.5455 49.384 90.6015 48.36 90.6015 46.312V45.256C90.0575 46.568 89.1935 47.608 88.0095 48.376C86.8255 49.112 85.4175 49.48 83.7855 49.48ZM85.0335 45.352C86.6015 45.352 87.8975 44.808 88.9215 43.72C89.9775 42.632 90.5055 41.256 90.5055 39.592V38.536H88.8735C85.8655 38.536 83.7695 38.776 82.5855 39.256C81.4335 39.704 80.8575 40.536 80.8575 41.752C80.8575 42.808 81.2255 43.672 81.9615 44.344C82.6975 45.016 83.7215 45.352 85.0335 45.352ZM105.38 49.384C103.332 49.384 102.308 48.36 102.308 46.312V28.168C102.308 26.152 103.284 25.144 105.236 25.144C107.188 25.144 108.164 26.152 108.164 28.168V29.656C109.316 26.904 111.78 25.368 115.556 25.048C116.932 24.888 117.7 25.672 117.86 27.4C118.02 29.096 117.188 30.04 115.364 30.232L114.308 30.328C110.372 30.712 108.404 32.728 108.404 36.376V46.312C108.404 48.36 107.396 49.384 105.38 49.384ZM133.216 49.48C127.008 49.48 123.904 46.408 123.904 40.264V30.04H121.408C119.808 30.04 119.008 29.288 119.008 27.784C119.008 26.28 119.808 25.528 121.408 25.528H123.904V21.16C123.904 19.144 124.912 18.136 126.928 18.136C128.912 18.136 129.904 19.144 129.904 21.16V25.528H134.992C136.592 25.528 137.392 26.28 137.392 27.784C137.392 29.288 136.592 30.04 134.992 30.04H129.904V39.928C129.904 41.464 130.24 42.616 130.912 43.384C131.584 44.152 132.672 44.536 134.176 44.536C134.72 44.536 135.2 44.488 135.616 44.392C136.032 44.296 136.4 44.232 136.72 44.2C137.104 44.168 137.424 44.296 137.68 44.584C137.936 44.84 138.064 45.384 138.064 46.216C138.064 46.856 137.952 47.432 137.728 47.944C137.536 48.424 137.168 48.76 136.624 48.952C136.208 49.08 135.664 49.192 134.992 49.288C134.32 49.416 133.728 49.48 133.216 49.48ZM148.614 49.48C146.918 49.48 145.398 49.16 144.054 48.52C142.742 47.848 141.702 46.952 140.934 45.832C140.198 44.712 139.83 43.448 139.83 42.04C139.83 40.312 140.278 38.952 141.174 37.96C142.07 36.936 143.526 36.2 145.542 35.752C147.558 35.304 150.262 35.08 153.654 35.08H155.334V34.072C155.334 32.472 154.982 31.32 154.278 30.616C153.574 29.912 152.39 29.56 150.726 29.56C149.798 29.56 148.79 29.672 147.702 29.896C146.646 30.12 145.526 30.504 144.342 31.048C143.574 31.4 142.934 31.448 142.422 31.192C141.91 30.904 141.558 30.472 141.366 29.896C141.206 29.288 141.238 28.68 141.462 28.072C141.718 27.464 142.214 27.016 142.95 26.728C144.422 26.12 145.83 25.688 147.174 25.432C148.55 25.176 149.798 25.048 150.918 25.048C154.342 25.048 156.886 25.848 158.55 27.448C160.214 29.016 161.046 31.464 161.046 34.792V46.312C161.046 48.36 160.118 49.384 158.262 49.384C156.374 49.384 155.43 48.36 155.43 46.312V45.256C154.886 46.568 154.022 47.608 152.838 48.376C151.654 49.112 150.246 49.48 148.614 49.48ZM149.862 45.352C151.43 45.352 152.726 44.808 153.75 43.72C154.806 42.632 155.334 41.256 155.334 39.592V38.536H153.702C150.694 38.536 148.598 38.776 147.414 39.256C146.262 39.704 145.686 40.536 145.686 41.752C145.686 42.808 146.054 43.672 146.79 44.344C147.526 45.016 148.55 45.352 149.862 45.352ZM168.576 49C167.744 49 167.12 48.744 166.704 48.232C166.288 47.688 166.112 47.048 166.176 46.312C166.24 45.576 166.576 44.872 167.184 44.2L178.464 30.04H168.288C166.752 30.04 165.984 29.288 165.984 27.784C165.984 26.28 166.752 25.528 168.288 25.528H182.496C183.456 25.528 184.16 25.784 184.608 26.296C185.088 26.808 185.296 27.432 185.232 28.168C185.2 28.872 184.88 29.56 184.272 30.232L172.848 44.488H183.6C185.136 44.488 185.904 45.24 185.904 46.744C185.904 48.248 185.136 49 183.6 49H168.576Z" fill="black"/>
<path d="M59.7525 49.48C56.2325 49.48 53.2085 48.776 50.6805 47.368C48.1845 45.928 46.2645 43.912 44.9205 41.32C43.5765 38.696 42.9045 35.608 42.9045 32.056C42.9045 28.504 43.5765 25.432 44.9205 22.84C46.2645 20.248 48.1845 18.248 50.6805 16.84C53.2085 15.4 56.2325 14.68 59.7525 14.68C61.5125 14.68 63.2405 14.904 64.9365 15.352C66.6325 15.8 68.1205 16.44 69.4005 17.272C70.2325 17.816 70.7285 18.472 70.8885 19.24C71.0485 19.976 70.9525 20.664 70.6005 21.304C70.2485 21.912 69.7205 22.328 69.0165 22.552C68.3125 22.744 67.5285 22.552 66.6645 21.976C65.6725 21.336 64.6005 20.872 63.4485 20.584C62.2965 20.296 61.1285 20.152 59.9445 20.152C56.5205 20.152 53.9125 21.192 52.1205 23.272C50.3285 25.32 49.4325 28.248 49.4325 32.056C49.4325 35.864 50.3285 38.808 52.1205 40.888C53.9125 42.968 56.5205 44.008 59.9445 44.008C61.1605 44.008 62.3605 43.864 63.5445 43.576C64.7285 43.256 65.8485 42.776 66.9045 42.136C67.7685 41.592 68.5365 41.416 69.2085 41.608C69.8805 41.8 70.3765 42.2 70.6965 42.808C71.0485 43.384 71.1605 44.024 71.0325 44.728C70.9045 45.432 70.4725 46.056 69.7365 46.6C68.4565 47.528 66.9205 48.248 65.1285 48.76C63.3685 49.24 61.5765 49.48 59.7525 49.48Z" fill="#5F5CE6"/>
<line x1="38.5" y1="55" x2="38.5" y2="62" stroke="black"/>
<line x1="37.5" y1="55" x2="37.5" y2="62" stroke="black"/>
<line x1="34.5" y1="55" x2="34.5" y2="62" stroke="black"/>
<line x1="40.5" y1="55" x2="40.5" y2="62" stroke="black"/>
<line x1="41.5" y1="55" x2="41.5" y2="62" stroke="black"/>
<line x1="45.5" y1="55" x2="45.5" y2="62" stroke="black"/>
<line x1="46.5" y1="55" x2="46.5" y2="62" stroke="black"/>
<line x1="48.5" y1="55" x2="48.5" y2="62" stroke="black"/>
<line x1="49.5" y1="55" x2="49.5" y2="62" stroke="black"/>
<line x1="53.5" y1="55" x2="53.5" y2="62" stroke="black"/>
<line x1="51.5" y1="55" x2="51.5" y2="62" stroke="black"/>
<line x1="55.5" y1="55" x2="55.5" y2="62" stroke="black"/>
<line x1="61.5" y1="55" x2="61.5" y2="62" stroke="black"/>
<line x1="62.5" y1="55" x2="62.5" y2="62" stroke="black"/>
<line x1="63.5" y1="55" x2="63.5" y2="62" stroke="black"/>
<line x1="60.5" y1="55" x2="60.5" y2="62" stroke="black"/>
<line x1="58.5" y1="55" x2="58.5" y2="62" stroke="black"/>
<path d="M44.5 55V62" stroke="black"/>
<line x1="7.5" y1="55" x2="7.5" y2="62" stroke="black"/>
<line x1="6.5" y1="55" x2="6.5" y2="62" stroke="black"/>
<line x1="3.5" y1="55" x2="3.5" y2="62" stroke="black"/>
<line x1="9.5" y1="55" x2="9.5" y2="62" stroke="black"/>
<line x1="10.5" y1="55" x2="10.5" y2="62" stroke="black"/>
<line x1="14.5" y1="55" x2="14.5" y2="62" stroke="black"/>
<line x1="15.5" y1="55" x2="15.5" y2="62" stroke="black"/>
<line x1="17.5" y1="55" x2="17.5" y2="62" stroke="black"/>
<line x1="18.5" y1="55" x2="18.5" y2="62" stroke="black"/>
<line x1="22.5" y1="55" x2="22.5" y2="62" stroke="black"/>
<line x1="20.5" y1="55" x2="20.5" y2="62" stroke="black"/>
<line x1="24.5" y1="55" x2="24.5" y2="62" stroke="black"/>
<line x1="30.5" y1="55" x2="30.5" y2="62" stroke="black"/>
<line x1="31.5" y1="55" x2="31.5" y2="62" stroke="black"/>
<line x1="32.5" y1="55" x2="32.5" y2="62" stroke="black"/>
<line x1="29.5" y1="55" x2="29.5" y2="62" stroke="black"/>
<line x1="27.5" y1="55" x2="27.5" y2="62" stroke="black"/>
<path d="M13.5 55V62" stroke="black"/>
<line x1="101.5" y1="55" x2="101.5" y2="62" stroke="black"/>
<line x1="100.5" y1="55" x2="100.5" y2="62" stroke="black"/>
<line x1="97.5" y1="55" x2="97.5" y2="62" stroke="black"/>
<line x1="103.5" y1="55" x2="103.5" y2="62" stroke="black"/>
<line x1="104.5" y1="55" x2="104.5" y2="62" stroke="black"/>
<line x1="108.5" y1="55" x2="108.5" y2="62" stroke="black"/>
<line x1="109.5" y1="55" x2="109.5" y2="62" stroke="black"/>
<line x1="111.5" y1="55" x2="111.5" y2="62" stroke="black"/>
<line x1="112.5" y1="55" x2="112.5" y2="62" stroke="black"/>
<line x1="116.5" y1="55" x2="116.5" y2="62" stroke="black"/>
<line x1="114.5" y1="55" x2="114.5" y2="62" stroke="black"/>
<line x1="118.5" y1="55" x2="118.5" y2="62" stroke="black"/>
<line x1="124.5" y1="55" x2="124.5" y2="62" stroke="black"/>
<line x1="125.5" y1="55" x2="125.5" y2="62" stroke="black"/>
<line x1="126.5" y1="55" x2="126.5" y2="62" stroke="black"/>
<line x1="123.5" y1="55" x2="123.5" y2="62" stroke="black"/>
<line x1="121.5" y1="55" x2="121.5" y2="62" stroke="black"/>
<path d="M107.5 55V62" stroke="black"/>
<line x1="130.5" y1="55" x2="130.5" y2="62" stroke="black"/>
<line x1="129.5" y1="55" x2="129.5" y2="62" stroke="black"/>
<line x1="126.5" y1="55" x2="126.5" y2="62" stroke="black"/>
<line x1="132.5" y1="55" x2="132.5" y2="62" stroke="black"/>
<line x1="133.5" y1="55" x2="133.5" y2="62" stroke="black"/>
<line x1="137.5" y1="55" x2="137.5" y2="62" stroke="black"/>
<line x1="138.5" y1="55" x2="138.5" y2="62" stroke="black"/>
<line x1="140.5" y1="55" x2="140.5" y2="62" stroke="black"/>
<line x1="141.5" y1="55" x2="141.5" y2="62" stroke="black"/>
<line x1="145.5" y1="55" x2="145.5" y2="62" stroke="black"/>
<line x1="143.5" y1="55" x2="143.5" y2="62" stroke="black"/>
<line x1="147.5" y1="55" x2="147.5" y2="62" stroke="black"/>
<line x1="153.5" y1="55" x2="153.5" y2="62" stroke="black"/>
<line x1="154.5" y1="55" x2="154.5" y2="62" stroke="black"/>
<line x1="155.5" y1="55" x2="155.5" y2="62" stroke="black"/>
<line x1="152.5" y1="55" x2="152.5" y2="62" stroke="black"/>
<line x1="150.5" y1="55" x2="150.5" y2="62" stroke="black"/>
<path d="M136.5 55V62" stroke="black"/>
<line x1="159.5" y1="55" x2="159.5" y2="62" stroke="black"/>
<line x1="158.5" y1="55" x2="158.5" y2="62" stroke="black"/>
<line x1="155.5" y1="55" x2="155.5" y2="62" stroke="black"/>
<line x1="161.5" y1="55" x2="161.5" y2="62" stroke="black"/>
<line x1="162.5" y1="55" x2="162.5" y2="62" stroke="black"/>
<line x1="166.5" y1="55" x2="166.5" y2="62" stroke="black"/>
<line x1="167.5" y1="55" x2="167.5" y2="62" stroke="black"/>
<line x1="169.5" y1="55" x2="169.5" y2="62" stroke="black"/>
<line x1="170.5" y1="55" x2="170.5" y2="62" stroke="black"/>
<line x1="174.5" y1="55" x2="174.5" y2="62" stroke="black"/>
<line x1="172.5" y1="55" x2="172.5" y2="62" stroke="black"/>
<line x1="176.5" y1="55" x2="176.5" y2="62" stroke="black"/>
<line x1="182.5" y1="55" x2="182.5" y2="62" stroke="black"/>
<line x1="183.5" y1="55" x2="183.5" y2="62" stroke="black"/>
<line x1="184.5" y1="55" x2="184.5" y2="62" stroke="black"/>
<line x1="181.5" y1="55" x2="181.5" y2="62" stroke="black"/>
<line x1="179.5" y1="55" x2="179.5" y2="62" stroke="black"/>
<path d="M165.5 55V62" stroke="black"/>
<line x1="70.5" y1="55" x2="70.5" y2="62" stroke="black"/>
<line x1="69.5" y1="55" x2="69.5" y2="62" stroke="black"/>
<line x1="66.5" y1="55" x2="66.5" y2="62" stroke="black"/>
<line x1="72.5" y1="55" x2="72.5" y2="62" stroke="black"/>
<line x1="73.5" y1="55" x2="73.5" y2="62" stroke="black"/>
<line x1="77.5" y1="55" x2="77.5" y2="62" stroke="black"/>
<line x1="78.5" y1="55" x2="78.5" y2="62" stroke="black"/>
<line x1="80.5" y1="55" x2="80.5" y2="62" stroke="black"/>
<line x1="81.5" y1="55" x2="81.5" y2="62" stroke="black"/>
<line x1="85.5" y1="55" x2="85.5" y2="62" stroke="black"/>
<line x1="83.5" y1="55" x2="83.5" y2="62" stroke="black"/>
<line x1="87.5" y1="55" x2="87.5" y2="62" stroke="black"/>
<line x1="93.5" y1="55" x2="93.5" y2="62" stroke="black"/>
<line x1="94.5" y1="55" x2="94.5" y2="62" stroke="black"/>
<line x1="95.5" y1="55" x2="95.5" y2="62" stroke="black"/>
<line x1="92.5" y1="55" x2="92.5" y2="62" stroke="black"/>
<line x1="90.5" y1="55" x2="90.5" y2="62" stroke="black"/>
<path d="M76.5 55V62" stroke="black"/>
</svg>
